<?xml version="1.0"?>
<svg version="1.0" xmlns="http://www.w3.org/2000/svg" viewBox="0 0 300 300">
	<g transform="translate(0.000000,300.000000) scale(0.100000,-0.100000)" fill="#2c7fd2" stroke="none">
		<path d="M868 2597 l-627 -362 -1 -732 0 -733 22 -14 c17 -10 1029 -594 1218 -703 24 -14 48 -1 655 350 l630 364 2 734 2 734 -247 141 c-136 78 -419 241 -630 363 -210 122 -385 221 -390 220 -4 0 -289 -163 -634 -362z m794 73 l117 -68 -58 -4 c-97 -7 -211 -78 -277 -172 l-20 -28 -35 21 c-69 42 -93 18 -92 -99 0 -53 6 -91 21 -129 18 -46 21 -76 23 -210 0 -86 -2 -188 -6 -226 -9 -87 6 -146 43 -175 22 -18 37 -21 85 -18 47 4 57 2 57 -12 0 -9 5 -21 11 -27 7 -7 -13 -12 -67 -17 -81 -7 -105 -16 -140 -48 l-22 -20 -30 45 c-53 76 -137 145 -199 163 -160 47 -373 -62 -432 -221 -32 -85 -51 -193 -53 -299 -1 -110 17 -160 87 -235 42 -45 44 -50 26 -56 -33 -10 -51 -34 -51 -67 0 -16 -4 -28 -8 -26 -4 2 -58 32 -120 66 l-112 64 2 629 3 630 544 314 c479 277 546 313 565 303 11 -6 74 -42 138 -78z m684 -396 l254 -146 0 -627 0 -627 -527 -304 c-291 -167 -537 -310 -548 -317 -18 -11 -45 2 -245 118 -124 72 -275 160 -337 195 -102 59 -111 67 -101 84 9 14 15 16 25 8 16 -13 14 -15 41 43 12 25 22 59 22 75 0 22 8 33 30 46 39 22 67 70 75 127 5 37 0 66 -25 141 -43 128 -33 216 28 256 32 21 114 21 168 -1 l41 -16 5 -77 c4 -58 13 -94 36 -145 30 -65 30 -69 13 -86 -17 -17 -33 -92 -47 -227 -10 -101 27 -237 70 -250 41 -13 290 -12 324 2 17 7 32 15 32 17 0 2 -13 33 -29 69 -61 134 -65 276 -11 399 17 37 30 76 30 86 0 13 15 26 44 40 24 12 60 36 80 53 30 26 46 33 89 35 28 1 61 4 71 6 16 3 24 -8 43 -56 24 -63 45 -85 103 -111 51 -23 145 -22 170 1 25 23 25 41 -1 109 -34 93 -156 187 -284 221 -32 8 -61 17 -64 21 -6 6 14 23 98 81 l53 37 49 -52 c57 -61 81 -72 152 -72 54 0 120 29 140 61 16 25 1 63 -43 107 -68 68 -167 102 -306 104 -78 1 -122 -16 -144 -56 -13 -25 -50 -37 -50 -16 0 5 -13 31 -29 57 -16 27 -32 62 -35 79 l-7 31 73 5 c83 5 134 30 122 57 -5 9 -10 43 -12 76 -3 58 -2 60 26 73 47 20 77 106 47 136 -9 9 -20 14 -24 11 -5 -2 -14 15 -20 38 -7 23 -24 62 -37 86 -13 24 -23 45 -22 46 2 2 27 14 56 29 28 14 58 35 64 46 7 11 15 20 17 20 2 0 118 -66 257 -146z"/>
	</g>
</svg>